<svg width="23" height="23" viewBox="0 0 23 23" fill="none" xmlns="http://www.w3.org/2000/svg">
<path d="M8.15515 14.8226L14.8227 8.15503" stroke="#001569" stroke-width="3" stroke-linecap="round" stroke-linejoin="round"/>
<path d="M8.71078 9.2663C9.01765 9.2663 9.26642 9.01753 9.26642 8.71066C9.26642 8.40379 9.01765 8.15503 8.71078 8.15503C8.40392 8.15503 8.15515 8.40379 8.15515 8.71066C8.15515 9.01753 8.40392 9.2663 8.71078 9.2663Z" stroke="#001569" stroke-width="3" stroke-linecap="round" stroke-linejoin="round"/>
<path d="M14.2671 14.8227C14.5739 14.8227 14.8227 14.5739 14.8227 14.2671C14.8227 13.9602 14.5739 13.7114 14.2671 13.7114C13.9602 13.7114 13.7114 13.9602 13.7114 14.2671C13.7114 14.5739 13.9602 14.8227 14.2671 14.8227Z" stroke="#001569" stroke-width="3" stroke-linecap="round" stroke-linejoin="round"/>
<path d="M3.71002 6.15481C3.71002 5.50641 3.9676 4.88457 4.42608 4.42608C4.88457 3.9676 5.50641 3.71002 6.15481 3.71002H7.26607C7.91161 3.70965 8.5308 3.45399 8.98854 2.99881L9.76642 2.22093C9.99362 1.99245 10.2637 1.81114 10.5612 1.68741C10.8588 1.56369 11.1778 1.5 11.5 1.5C11.8222 1.5 12.1412 1.56369 12.4387 1.68741C12.7363 1.81114 13.0064 1.99245 13.2336 2.22093L14.0115 2.99881C14.4692 3.45399 15.0884 3.70965 15.7339 3.71002H16.8452C17.4936 3.71002 18.1154 3.9676 18.5739 4.42608C19.0324 4.88457 19.29 5.50641 19.29 6.15481V7.26607C19.2903 7.91161 19.546 8.5308 20.0012 8.98854L20.7791 9.76642C21.0075 9.99362 21.1889 10.2637 21.3126 10.5612C21.4363 10.8588 21.5 11.1778 21.5 11.5C21.5 11.8222 21.4363 12.1412 21.3126 12.4387C21.1889 12.7363 21.0075 13.0064 20.7791 13.2336L20.0012 14.0115C19.546 14.4692 19.2903 15.0884 19.29 15.7339V16.8452C19.29 17.4936 19.0324 18.1154 18.5739 18.5739C18.1154 19.0324 17.4936 19.29 16.8452 19.29H15.7339C15.0884 19.2903 14.4692 19.546 14.0115 20.0012L13.2336 20.7791C13.0064 21.0075 12.7363 21.1889 12.4387 21.3126C12.1412 21.4363 11.8222 21.5 11.5 21.5C11.1778 21.5 10.8588 21.4363 10.5612 21.3126C10.2637 21.1889 9.99362 21.0075 9.76642 20.7791L8.98854 20.0012C8.5308 19.546 7.91161 19.2903 7.26607 19.29H6.15481C5.50641 19.29 4.88457 19.0324 4.42608 18.5739C3.9676 18.1154 3.71002 17.4936 3.71002 16.8452V15.7339C3.70965 15.0884 3.45399 14.4692 2.99881 14.0115L2.22093 13.2336C1.99245 13.0064 1.81114 12.7363 1.68741 12.4387C1.56369 12.1412 1.5 11.8222 1.5 11.5C1.5 11.1778 1.56369 10.8588 1.68741 10.5612C1.81114 10.2637 1.99245 9.99362 2.22093 9.76642L2.99881 8.98854C3.45399 8.5308 3.70965 7.91161 3.71002 7.26607V6.15481" stroke="#001569" stroke-width="3" stroke-linecap="round" stroke-linejoin="round"/>
</svg>
