<svg width="20" height="23" viewBox="0 0 20 23" fill="none" xmlns="http://www.w3.org/2000/svg">
<path d="M8.125 10.4258H10V12.2393H8.125V10.4258Z" fill="#001569"/>
<path d="M15.2812 7.85961C14.1728 5.22796 12.6606 3.003 10.8625 1.358C10.0318 0.594164 9.08488 0.136966 8.10437 0.0263224C7.12387 -0.0843217 6.1396 0.154952 5.2375 0.723252C4.44844 1.26324 3.76184 2.07378 3.23699 3.08488C2.71213 4.09597 2.36481 5.27723 2.225 6.52664C2.175 6.95283 2.1375 7.36088 2.1 7.75986C1.51484 7.89747 0.982423 8.33228 0.597769 8.98669C0.213115 9.64109 0.00125517 10.4725 0 11.3326V16.8911C0 17.3721 0.131696 17.8334 0.366116 18.1735C0.600537 18.5136 0.918479 18.7047 1.25 18.7047V11.3326C1.25 10.8516 1.3817 10.3903 1.61612 10.0502C1.85054 9.71009 2.16848 9.51901 2.5 9.51901H14.2062C15.4108 9.52141 16.5656 10.2167 17.4173 11.4525C18.2691 12.6883 18.7483 14.3637 18.75 16.1113V16.7733H17.5C17.236 15.8394 16.7443 15.0792 16.1187 14.6378C15.493 14.1963 14.7773 14.1046 14.108 14.38C13.4387 14.6553 12.8627 15.2786 12.4899 16.1309C12.1172 16.9831 11.9737 18.0046 12.087 19.0005C12.2002 19.9964 12.5623 20.897 13.104 21.5303C13.6457 22.1636 14.3291 22.4854 15.024 22.4342C15.7188 22.3831 16.3763 21.9626 16.871 21.2529C17.3657 20.5433 17.6631 19.5942 17.7062 18.5868H18.75C19.0815 18.5868 19.3995 18.3957 19.6339 18.0556C19.8683 17.7155 20 17.2542 20 16.7733V16.1113C19.9975 14.1544 19.525 12.26 18.6637 10.7539C17.8025 9.24788 16.6064 8.22441 15.2812 7.85961ZM5.625 7.70545H3.08125C3.08125 7.42435 3.1375 7.13418 3.175 6.79868C3.28298 5.80254 3.56478 4.86303 3.9936 4.06946C4.42243 3.2759 4.98402 2.65465 5.625 2.26478V7.70545ZM6.875 7.70545V1.88393C8.04185 1.66409 9.22522 2.03566 10.225 2.93579C11.5898 4.16918 12.7678 5.79186 13.6875 7.70545H6.875ZM14.875 20.7449C14.566 20.7449 14.2639 20.612 14.0069 20.3629C13.75 20.1138 13.5497 19.7598 13.4314 19.3455C13.3132 18.9313 13.2822 18.4755 13.3425 18.0357C13.4028 17.596 13.5516 17.1921 13.7701 16.875C13.9887 16.558 14.2671 16.3421 14.5702 16.2546C14.8733 16.1671 15.1874 16.212 15.4729 16.3836C15.7585 16.5552 16.0025 16.8457 16.1742 17.2185C16.3459 17.5913 16.4375 18.0296 16.4375 18.478C16.4375 19.0792 16.2729 19.6558 15.9799 20.081C15.6868 20.5061 15.2894 20.7449 14.875 20.7449Z" fill="#001569"/>
<path d="M7.60631 16.7733C7.34235 15.8394 6.85063 15.0792 6.22499 14.6378C5.59935 14.1964 4.88359 14.1046 4.21428 14.38C3.54498 14.6554 2.96899 15.2787 2.59623 16.1309C2.22347 16.9831 2.08004 18.0047 2.1933 19.0006C2.30656 19.9965 2.66858 20.897 3.21029 21.5303C3.752 22.1636 4.43546 22.4854 5.13027 22.4343C5.82508 22.3831 6.48258 21.9626 6.97731 21.253C7.47205 20.5433 7.76938 19.5942 7.81256 18.5868H11.1251V18.3601C11.1127 17.8251 11.1548 17.2904 11.2501 16.7733H7.60631ZM5.00006 20.745C4.69103 20.745 4.38894 20.612 4.13199 20.3629C3.87503 20.1138 3.67476 19.7598 3.5565 19.3455C3.43824 18.9313 3.4073 18.4755 3.46759 18.0358C3.52788 17.596 3.67669 17.1921 3.89521 16.875C4.11373 16.558 4.39214 16.3421 4.69524 16.2546C4.99833 16.1672 5.3125 16.2121 5.59801 16.3836C5.88352 16.5552 6.12755 16.8458 6.29924 17.2186C6.47093 17.5914 6.56256 18.0297 6.56256 18.478C6.56256 19.0793 6.39794 19.6559 6.10492 20.081C5.81189 20.5061 5.41447 20.745 5.00006 20.745Z" fill="#001569"/>
</svg>
