<svg width="20" height="17" viewBox="0 0 20 17" fill="none" xmlns="http://www.w3.org/2000/svg">
<path d="M19.0909 14.5455V16.3636H17.2727V14.5455H2.72727V16.3636H0.909091V14.5455C0.667985 14.5455 0.436754 14.4497 0.266267 14.2792C0.0957789 14.1087 0 13.8775 0 13.6364V2.72728C0 2.48617 0.0957789 2.25494 0.266267 2.08445C0.436754 1.91396 0.667985 1.81819 0.909091 1.81819H10.48C10.9911 1.24551 11.6175 0.787447 12.3182 0.474087C13.0189 0.160726 13.7779 -0.000839817 14.5455 3.28272e-06C16.1609 3.28272e-06 17.6127 0.702731 18.6109 1.81819H19.0909C19.332 1.81819 19.5632 1.91396 19.7337 2.08445C19.9042 2.25494 20 2.48617 20 2.72728V13.6364C20 13.8775 19.9042 14.1087 19.7337 14.2792C19.5632 14.4497 19.332 14.5455 19.0909 14.5455ZM9.40091 3.63637H1.81818V12.7273H18.1818V9.52C17.2792 10.3284 16.1331 10.8133 14.9244 10.8981C13.7156 10.9829 12.5131 10.6628 11.5064 9.98829C10.4998 9.3138 9.74641 8.32332 9.36515 7.17315C8.9839 6.02298 8.99648 4.7786 9.40091 3.63637ZM14.5455 9.09091C15.5099 9.09091 16.4348 8.7078 17.1168 8.02585C17.7987 7.3439 18.1818 6.41897 18.1818 5.45455C18.1818 4.49013 17.7987 3.5652 17.1168 2.88325C16.4348 2.2013 15.5099 1.81819 14.5455 1.81819C13.581 1.81819 12.6561 2.2013 11.9742 2.88325C11.2922 3.5652 10.9091 4.49013 10.9091 5.45455C10.9091 6.41897 11.2922 7.3439 11.9742 8.02585C12.6561 8.7078 13.581 9.09091 14.5455 9.09091ZM3.63636 9.09091H5.45455V10.9091H3.63636V9.09091ZM6.36364 9.09091H8.18182V10.9091H6.36364V9.09091Z" fill="#001569"/>
</svg>
