<svg width="32" height="32" viewBox="0 0 32 32" fill="none" xmlns="http://www.w3.org/2000/svg">
<path d="M1 1H4.33333L5 4.33333L1 1ZM7.66667 17.6667H24.3333L31 4.33333H5L7.66667 17.6667ZM7.66667 17.6667L5 4.33333L7.66667 17.6667ZM7.66667 17.6667L3.845 21.4883C2.795 22.5383 3.53833 24.3333 5.02333 24.3333H24.3333L7.66667 17.6667ZM24.3333 24.3333C23.4493 24.3333 22.6014 24.6845 21.9763 25.3096C21.3512 25.9348 21 26.7826 21 27.6667C21 28.5507 21.3512 29.3986 21.9763 30.0237C22.6014 30.6488 23.4493 31 24.3333 31C25.2174 31 26.0652 30.6488 26.6904 30.0237C27.3155 29.3986 27.6667 28.5507 27.6667 27.6667C27.6667 26.7826 27.3155 25.9348 26.6904 25.3096C26.0652 24.6845 25.2174 24.3333 24.3333 24.3333ZM11 27.6667C11 28.5507 10.6488 29.3986 10.0237 30.0237C9.39857 30.6488 8.55072 31 7.66667 31C6.78261 31 5.93477 30.6488 5.30964 30.0237C4.68452 29.3986 4.33333 28.5507 4.33333 27.6667C4.33333 26.7826 4.68452 25.9348 5.30964 25.3096C5.93477 24.6845 6.78261 24.3333 7.66667 24.3333C8.55072 24.3333 9.39857 24.6845 10.0237 25.3096C10.6488 25.9348 11 26.7826 11 27.6667V27.6667Z" stroke="#FFAF37" stroke-width="2" stroke-linecap="round" stroke-linejoin="round"/>
</svg>
