<svg width="70" height="72" viewBox="0 0 70 72" fill="none" xmlns="http://www.w3.org/2000/svg">
<path d="M36.4795 56.822C36.2269 56.5215 35.923 56.1381 35.5791 55.6833C34.6643 54.4737 33.5281 52.8497 32.416 51.1785C31.3043 49.5077 30.2312 47.8113 29.4414 46.4587C29.1899 46.028 28.9724 45.6392 28.793 45.3035C29.1918 45.2705 29.6383 45.267 30.1904 45.2556C30.8056 45.2429 31.601 45.2172 32.3174 45.0125C33.0861 44.7926 33.9425 44.3125 34.3896 43.2947L34.4043 43.2625L34.417 43.2292C34.7497 42.3624 34.649 41.3175 34.4629 40.4158C34.2621 39.4429 33.8932 38.3291 33.4082 37.158C32.4361 34.8107 30.9364 32.0809 29.1484 29.5232C28.2643 28.2584 27.6054 27.2769 27.1328 26.491C26.6519 25.6911 26.4158 25.1763 26.3174 24.8337C26.2714 24.6735 26.2651 24.5831 26.2656 24.5427C26.2661 24.5103 26.2709 24.5009 26.2734 24.4949C26.2868 24.4627 26.3558 24.3334 26.6904 24.0515C26.8014 24.1215 26.9642 24.2369 27.1914 24.4265C27.5371 24.715 27.9697 25.1175 28.5352 25.6697C29.3257 26.4416 30.1294 27.1109 30.8057 27.5652C31.1337 27.7855 31.495 27.9982 31.8457 28.1326C32.0154 28.1976 32.2681 28.2785 32.5605 28.2927C32.8435 28.3064 33.3946 28.2633 33.8486 27.8093L34.1631 27.4949L34.2549 27.0603C34.8956 24.0378 34.8313 21.4849 34.7969 18.6541C34.8616 18.6533 34.9262 18.653 34.9902 18.6521C35.5749 18.644 36.1263 18.6336 36.6729 18.6423C37.3745 18.6536 38.0081 18.6973 38.5781 18.7996C39.1992 27.4211 38.9746 34.2285 38.9746 43.7576V45.2576H43.4287C43.6803 45.2576 43.8988 45.2594 44.0918 45.2615C43.9194 45.608 43.6659 46.0705 43.3047 46.6824C42.5888 47.895 41.5546 49.5242 40.1475 51.7439C38.8962 53.7176 37.825 55.2326 37.0059 56.2214C36.8067 56.4619 36.6312 56.6613 36.4795 56.822Z" fill="#FFE76B" stroke="#FFAF37" stroke-width="3"/>
</svg>
