<svg width="20" height="18" viewBox="0 0 20 18" fill="none" xmlns="http://www.w3.org/2000/svg">
<path d="M14.3571 1.27418L18.725 8.91927L14.3571 16.5644H5.64166L1.27377 8.91927L5.64166 1.27418H14.3571ZM5.64166 0C5.41707 7.24424e-05 5.19649 0.0595075 5.00226 0.172283C4.80804 0.285059 4.64707 0.447169 4.53567 0.642187L0.167781 8.28728C0.0578313 8.47976 0 8.6976 0 8.91927C0 9.14094 0.0578313 9.35878 0.167781 9.55126L4.53567 17.1964C4.64707 17.3914 4.80804 17.5535 5.00226 17.6663C5.19649 17.779 5.41707 17.8385 5.64166 17.8385H14.3571C14.5817 17.8385 14.8022 17.779 14.9965 17.6663C15.1907 17.5535 15.3517 17.3914 15.4631 17.1964L19.8322 9.55126C19.9422 9.35878 20 9.14094 20 8.91927C20 8.6976 19.9422 8.47976 19.8322 8.28728L15.4631 0.642187C15.3517 0.447169 15.1907 0.285059 14.9965 0.172283C14.8022 0.0595075 14.5817 7.24424e-05 14.3571 0H5.64166Z" fill="#001569"/>
<path d="M8.53154 6.28551C8.16634 6.49315 7.84582 6.77097 7.58843 7.10298C7.33104 7.435 7.14186 7.81464 7.0318 8.22006C6.92173 8.62548 6.89294 9.04867 6.94709 9.46527C7.00123 9.88186 7.13725 10.2836 7.3473 10.6474C7.55736 11.0113 7.8373 11.3299 8.17101 11.5851C8.50472 11.8403 8.88562 12.0269 9.29176 12.1343C9.6979 12.2417 10.1213 12.2677 10.5375 12.2108C10.9537 12.1539 11.3546 12.0152 11.717 11.8027C12.4427 11.3773 12.9706 10.6821 13.1856 9.86889C13.4006 9.05566 13.2852 8.19039 12.8646 7.46192C12.444 6.73345 11.7524 6.20091 10.9406 5.98051C10.1288 5.76012 9.26278 5.86976 8.53154 6.28551ZM6.2635 11.2739C5.95872 10.7664 5.75806 10.2032 5.67322 9.61722C5.58838 9.03128 5.62107 8.4343 5.76937 7.86112C5.91767 7.28795 6.17861 6.75003 6.53698 6.27876C6.89536 5.80749 7.34398 5.41229 7.85669 5.11622C8.3694 4.82015 8.93593 4.62913 9.52324 4.55431C10.1105 4.47949 10.7069 4.52236 11.2774 4.68042C11.848 4.83848 12.3814 5.10858 12.8465 5.47494C13.3116 5.84131 13.699 6.29661 13.9863 6.8143C14.5684 7.83804 14.7219 9.05046 14.4133 10.187C14.1048 11.3235 13.3592 12.2918 12.3393 12.8806C11.3195 13.4695 10.1081 13.631 8.96958 13.33C7.83106 13.029 6.85781 12.2899 6.26222 11.2739H6.2635Z" fill="#001569"/>
</svg>
