<svg width="20" height="27" viewBox="0 0 20 27" fill="none" xmlns="http://www.w3.org/2000/svg">
<path d="M9.99995 16.1027C12.7574 16.1027 14.9999 13.6953 14.9999 10.7351C14.9999 7.77489 12.7574 5.36752 9.99995 5.36752C7.24248 5.36752 5 7.77489 5 10.7351C5 13.6953 7.24248 16.1027 9.99995 16.1027ZM9.99995 8.05132C11.3787 8.05132 12.4999 9.255 12.4999 10.7351C12.4999 12.2152 11.3787 13.4189 9.99995 13.4189C8.62121 13.4189 7.49997 12.2152 7.49997 10.7351C7.49997 9.255 8.62121 8.05132 9.99995 8.05132Z" fill="#FFAF37"/>
<path d="M9.27501 26.5883C9.48656 26.7505 9.74004 26.8377 10 26.8377C10.26 26.8377 10.5134 26.7505 10.725 26.5883C11.105 26.2998 20.0361 19.377 19.9999 10.7352C19.9999 4.81607 15.5137 0 10 0C4.48631 0 0.000110046 4.81607 0.000110046 10.7285C-0.0361396 19.377 8.89501 26.2998 9.27501 26.5883ZM10 2.68379C14.1362 2.68379 17.4999 6.29484 17.4999 10.7419C17.5262 16.6972 12.015 22.0447 10 23.7985C7.98627 22.0433 2.47383 16.6945 2.50008 10.7352C2.50008 6.29484 5.8638 2.68379 10 2.68379Z" fill="#FFAF37"/>
</svg>
