<svg width="50" height="70" viewBox="0 0 50 70" fill="none" xmlns="http://www.w3.org/2000/svg">
<path d="M35 63.3333L28.3333 70H21.6667L15 63.3333V30H35V43.3333L31.6667 46.6667L35 50V53.3333L31.6667 56.6667L35 60V63.3333Z" fill="#FFAF37"/>
<path d="M48.3333 8C47.5 5 45 2.83333 42.1667 2C38.1667 1.16667 32 0 25 0C18 0 11.8333 1.16667 7.83333 2C5 2.83333 2.5 5 1.66667 8C0.833333 10.8333 0 14.8333 0 19.1667C0 23.5 0.833333 27.5 1.66667 30.3333C2.5 33.3333 4.83333 35.5 7.83333 36.1667C11.8333 37.1667 18 38.3333 25 38.3333C32 38.3333 38.1667 37.1667 42.1667 36.3333C45.1667 35.6667 47.5 33.3333 48.3333 30.5C49.1667 27.6667 50 23.6667 50 19.3333C50 14.8333 49.1667 10.8333 48.3333 8ZM33.3333 16.6667H16.6667C14.8333 16.6667 13.3333 15.1667 13.3333 13.3333V10C13.3333 9 18.5 8.33333 25 8.33333C31.5 8.33333 36.6667 9 36.6667 10V13.3333C36.6667 15.1667 35.1667 16.6667 33.3333 16.6667Z" fill="#FFAF37"/>
<path d="M23.3334 38.3334H26.6667V70H23.3334V38.3334Z" fill="#FFAF37"/>
</svg>
