<svg width="24" height="18" viewBox="0 0 24 18" fill="none" xmlns="http://www.w3.org/2000/svg">
<path d="M22.5 0H1.5C1.10218 0 0.720644 0.158035 0.43934 0.43934C0.158035 0.720644 0 1.10218 0 1.5V16.5C0 16.8978 0.158035 17.2794 0.43934 17.5607C0.720644 17.842 1.10218 18 1.5 18H22.5C22.8978 18 23.2794 17.842 23.5607 17.5607C23.842 17.2794 24 16.8978 24 16.5V1.5C24 1.10218 23.842 0.720644 23.5607 0.43934C23.2794 0.158035 22.8978 0 22.5 0ZM21.345 16.5H2.745L7.995 11.07L6.915 10.0275L1.5 15.63V2.64L10.8225 11.9175C11.1035 12.1969 11.4837 12.3537 11.88 12.3537C12.2763 12.3537 12.6565 12.1969 12.9375 11.9175L22.5 2.4075V15.5325L16.98 10.0125L15.9225 11.07L21.345 16.5ZM2.4825 1.5H21.285L11.88 10.8525L2.4825 1.5Z" fill="#FFAF37"/>
</svg>
