<svg width="60" height="63" viewBox="0 0 60 63" fill="none" xmlns="http://www.w3.org/2000/svg">
<path d="M21.3 35.07L30 29.79L38.6625 35.07L35.3625 26.52L44.0625 21H33.4125L30 12.57L26.5875 21H15.9375L24.6 26.52L21.3 35.07ZM60 24C60 10.74 46.575 0 30 0C13.425 0 0 10.74 0 24C0 30.09 2.85 35.61 7.5 39.84V63L30 57L52.5 63V39.84C57.3354 35.4705 60.0033 29.8358 60 24ZM30 6C42.4125 6 52.5 14.07 52.5 24C52.5 33.93 42.4125 42 30 42C17.5875 42 7.5 33.93 7.5 24C7.5 14.07 17.5875 6 30 6ZM30 51L15 54.06V44.76C19.425 46.8 24.525 48 30 48C35.475 48 40.575 46.8 45 44.76V54.06L30 51Z" fill="#FFAF37"/>
</svg>
