<svg width="15" height="24" viewBox="0 0 15 24" fill="none" xmlns="http://www.w3.org/2000/svg">
<path d="M12 1.5C12.3978 1.5 12.7794 1.65804 13.0607 1.93934C13.342 2.22064 13.5 2.60218 13.5 3V21C13.5 21.3978 13.342 21.7794 13.0607 22.0607C12.7794 22.342 12.3978 22.5 12 22.5H3C2.60218 22.5 2.22064 22.342 1.93934 22.0607C1.65804 21.7794 1.5 21.3978 1.5 21V3C1.5 2.60218 1.65804 2.22064 1.93934 1.93934C2.22064 1.65804 2.60218 1.5 3 1.5H12ZM3 0C2.20435 0 1.44129 0.316071 0.87868 0.87868C0.31607 1.44129 0 2.20435 0 3V21C0 21.7956 0.31607 22.5587 0.87868 23.1213C1.44129 23.6839 2.20435 24 3 24H12C12.7956 24 13.5587 23.6839 14.1213 23.1213C14.6839 22.5587 15 21.7956 15 21V3C15 2.20435 14.6839 1.44129 14.1213 0.87868C13.5587 0.316071 12.7956 0 12 0L3 0Z" fill="#001569"/>
<path d="M7.5 21C7.89782 21 8.27936 20.842 8.56066 20.5607C8.84196 20.2794 9 19.8978 9 19.5C9 19.1022 8.84196 18.7206 8.56066 18.4393C8.27936 18.158 7.89782 18 7.5 18C7.10218 18 6.72064 18.158 6.43934 18.4393C6.15804 18.7206 6 19.1022 6 19.5C6 19.8978 6.15804 20.2794 6.43934 20.5607C6.72064 20.842 7.10218 21 7.5 21Z" fill="#001569"/>
</svg>
