<svg width="20" height="10" viewBox="0 0 20 10" fill="none" xmlns="http://www.w3.org/2000/svg">
<path d="M19.7708 7.43061L17.4387 4.57274L19.725 1.77202C19.8501 1.6188 19.9289 1.43312 19.9522 1.23672C19.9755 1.04033 19.9423 0.841371 19.8565 0.663163C19.7696 0.46342 19.6256 0.293867 19.4425 0.175875C19.2594 0.0578826 19.0455 -0.00326612 18.8277 0.000136772H1.10886C0.965485 -0.0021328 0.823073 0.0238633 0.689751 0.0766399C0.556429 0.129417 0.43481 0.20794 0.33184 0.307726C0.22887 0.407512 0.146565 0.526604 0.0896276 0.658203C0.0326899 0.789801 0.0022342 0.931327 0 1.0747L0 8.07649C0.00600767 8.36504 0.126033 8.63947 0.333828 8.83977C0.541623 9.04007 0.820278 9.14993 1.10886 9.14533H18.8905C19.1011 9.14885 19.3082 9.09206 19.4874 8.98167C19.6667 8.87127 19.8106 8.71188 19.9022 8.52232C19.9845 8.34623 20.0158 8.15063 19.9925 7.95767C19.9693 7.76472 19.8925 7.58213 19.7708 7.43061ZM1.14315 8.00218V1.14329H18.7362L15.9698 4.53273L18.7762 8.00218H1.14315Z" fill="#001569"/>
<path d="M5.36712 5.34426L3.50379 2.85791H2.85791V6.39024H3.50379V3.90961L5.36712 6.39024H6.00729V2.85791H5.36712V5.34426Z" fill="#001569"/>
<path d="M6.96167 6.39024H9.62521V5.80724H7.60755V4.887H9.43087V4.29828H7.60755V3.44663H9.62521V2.85791H6.96167V6.39024Z" fill="#001569"/>
<path d="M14.0151 5.38999L13.1806 2.85791H12.4833L11.6431 5.38999L10.8886 2.85791H10.1855L11.3058 6.39024H11.9403L12.8319 3.76671L13.7179 6.39024H14.3638L15.4783 2.85791H14.7753L14.0151 5.38999Z" fill="#001569"/>
</svg>
