<svg width="60" height="54" viewBox="0 0 60 54" fill="none" xmlns="http://www.w3.org/2000/svg">
<path d="M38.262 21C41.16 21 43.512 23.352 43.512 26.25V40.497C43.512 44.0782 42.0894 47.5128 39.5571 50.0451C37.0248 52.5774 33.5902 54 30.009 54C26.4278 54 22.9932 52.5774 20.4609 50.0451C17.9286 47.5128 16.506 44.0782 16.506 40.497V26.25C16.506 23.352 18.855 21 21.756 21H38.262ZM38.262 25.5H21.756C21.5571 25.5 21.3663 25.579 21.2257 25.7197C21.085 25.8603 21.006 26.0511 21.006 26.25V40.497C21.006 42.8847 21.9545 45.1747 23.6429 46.8631C25.3313 48.5515 27.6213 49.5 30.009 49.5C32.3967 49.5 34.6867 48.5515 36.3751 46.8631C38.0635 45.1747 39.012 42.8847 39.012 40.497V26.25C39.012 26.0511 38.933 25.8603 38.7923 25.7197C38.6517 25.579 38.4609 25.5 38.262 25.5ZM5.25 21H15.393C14.3346 22.2783 13.6882 23.8471 13.539 25.5H5.25C5.05109 25.5 4.86032 25.579 4.71967 25.7197C4.57902 25.8603 4.5 26.0511 4.5 26.25V35.997C4.49981 37.1306 4.75651 38.2496 5.25082 39.2698C5.74513 40.29 6.46419 41.185 7.35399 41.8874C8.2438 42.5898 9.28121 43.0815 10.3883 43.3255C11.4954 43.5694 12.6434 43.5594 13.746 43.296C14.001 44.808 14.466 46.251 15.105 47.592C13.3268 48.0677 11.4631 48.1281 9.65788 47.7684C7.85267 47.4088 6.15435 46.6388 4.69424 45.518C3.23414 44.3972 2.05137 42.9556 1.23739 41.3046C0.423413 39.6537 3.68993e-05 37.8377 0 35.997V26.25C0 23.352 2.352 21 5.25 21ZM44.625 21H54.75C57.648 21 60 23.352 60 26.25V36C60.0004 37.8395 59.5779 39.6545 58.7652 41.3047C57.9524 42.9549 56.7712 44.3961 55.3127 45.5171C53.8542 46.6381 52.1575 47.4087 50.3538 47.7696C48.55 48.1304 46.6875 48.0717 44.91 47.598C45.552 46.254 46.017 44.811 46.275 43.299C47.3763 43.5593 48.5221 43.567 49.6268 43.3215C50.7314 43.0761 51.7662 42.5838 52.6537 41.8817C53.5411 41.1796 54.2581 40.2857 54.751 39.2671C55.244 38.2485 55.5 37.1316 55.5 36V26.25C55.5 26.0511 55.421 25.8603 55.2803 25.7197C55.1397 25.579 54.9489 25.5 54.75 25.5H46.479C46.3298 23.8471 45.6834 22.2783 44.625 21ZM30 0C32.3869 0 34.6761 0.948212 36.364 2.63604C38.0518 4.32387 39 6.61305 39 9C39 11.3869 38.0518 13.6761 36.364 15.364C34.6761 17.0518 32.3869 18 30 18C27.6131 18 25.3239 17.0518 23.636 15.364C21.9482 13.6761 21 11.3869 21 9C21 6.61305 21.9482 4.32387 23.636 2.63604C25.3239 0.948212 27.6131 0 30 0ZM49.5 3C51.4891 3 53.3968 3.79018 54.8033 5.1967C56.2098 6.60322 57 8.51088 57 10.5C57 12.4891 56.2098 14.3968 54.8033 15.8033C53.3968 17.2098 51.4891 18 49.5 18C47.5109 18 45.6032 17.2098 44.1967 15.8033C42.7902 14.3968 42 12.4891 42 10.5C42 8.51088 42.7902 6.60322 44.1967 5.1967C45.6032 3.79018 47.5109 3 49.5 3ZM10.5 3C12.4891 3 14.3968 3.79018 15.8033 5.1967C17.2098 6.60322 18 8.51088 18 10.5C18 12.4891 17.2098 14.3968 15.8033 15.8033C14.3968 17.2098 12.4891 18 10.5 18C8.51088 18 6.60322 17.2098 5.1967 15.8033C3.79018 14.3968 3 12.4891 3 10.5C3 8.51088 3.79018 6.60322 5.1967 5.1967C6.60322 3.79018 8.51088 3 10.5 3ZM30 4.5C28.8065 4.5 27.6619 4.97411 26.818 5.81802C25.9741 6.66193 25.5 7.80653 25.5 9C25.5 10.1935 25.9741 11.3381 26.818 12.182C27.6619 13.0259 28.8065 13.5 30 13.5C31.1935 13.5 32.3381 13.0259 33.182 12.182C34.0259 11.3381 34.5 10.1935 34.5 9C34.5 7.80653 34.0259 6.66193 33.182 5.81802C32.3381 4.97411 31.1935 4.5 30 4.5ZM49.5 7.5C48.7043 7.5 47.9413 7.81607 47.3787 8.37868C46.8161 8.94129 46.5 9.70435 46.5 10.5C46.5 11.2956 46.8161 12.0587 47.3787 12.6213C47.9413 13.1839 48.7043 13.5 49.5 13.5C50.2957 13.5 51.0587 13.1839 51.6213 12.6213C52.1839 12.0587 52.5 11.2956 52.5 10.5C52.5 9.70435 52.1839 8.94129 51.6213 8.37868C51.0587 7.81607 50.2957 7.5 49.5 7.5ZM10.5 7.5C9.70435 7.5 8.94129 7.81607 8.37868 8.37868C7.81607 8.94129 7.5 9.70435 7.5 10.5C7.5 11.2956 7.81607 12.0587 8.37868 12.6213C8.94129 13.1839 9.70435 13.5 10.5 13.5C11.2956 13.5 12.0587 13.1839 12.6213 12.6213C13.1839 12.0587 13.5 11.2956 13.5 10.5C13.5 9.70435 13.1839 8.94129 12.6213 8.37868C12.0587 7.81607 11.2956 7.5 10.5 7.5Z" fill="#FFAF37"/>
</svg>
