<svg width="20" height="18" viewBox="0 0 20 18" fill="none" xmlns="http://www.w3.org/2000/svg">
<path d="M7.04067 12.51L5.81638 11.7757L7.30995 9.28567H3.73853L6.53067 4.63281L7.75495 5.3671L6.26138 7.8571H9.83281L7.04067 12.51Z" fill="#001569"/>
<path d="M20 2.14286H19.2857V0H17.8571V2.14286H17.1429V6.42857H17.8571V14.6429C17.8571 14.927 17.7443 15.1995 17.5433 15.4005C17.3424 15.6014 17.0699 15.7143 16.7857 15.7143C16.5016 15.7143 16.229 15.6014 16.0281 15.4005C15.8272 15.1995 15.7143 14.927 15.7143 14.6429V8.57143C15.7143 8.38199 15.639 8.20031 15.5051 8.06635C15.3711 7.9324 15.1894 7.85714 15 7.85714H12.1429V0.714286C12.1429 0.524845 12.0676 0.343164 11.9336 0.20921C11.7997 0.075255 11.618 0 11.4286 0H2.14286C1.95342 0 1.77174 0.075255 1.63778 0.20921C1.50383 0.343164 1.42857 0.524845 1.42857 0.714286V15.7143H0V17.1429H13.5714V15.7143H12.1429V9.28571H14.2857V14.6429C14.2857 15.3059 14.5491 15.9418 15.0179 16.4106C15.4868 16.8795 16.1227 17.1429 16.7857 17.1429C17.4488 17.1429 18.0846 16.8795 18.5535 16.4106C19.0223 15.9418 19.2857 15.3059 19.2857 14.6429V6.42857H20V2.14286ZM10.7143 15.7143H2.85714V1.42857H10.7143V15.7143Z" fill="#001569"/>
</svg>
