<svg width="20" height="20" viewBox="0 0 20 20" fill="none" xmlns="http://www.w3.org/2000/svg">
<path d="M16.8333 4.67083V0H3.16667V4.67083C2.31289 4.71459 1.50845 5.08431 0.919248 5.70375C0.330048 6.32318 0.00101396 7.1451 0 8V16H2.83333V14.6667H1.33333V8C1.33393 7.46975 1.54483 6.96139 1.91978 6.58644C2.29472 6.2115 2.80308 6.0006 3.33333 6H16.6667C17.1969 6.0006 17.7053 6.2115 18.0802 6.58644C18.4552 6.96139 18.6661 7.46975 18.6667 8V14.6667H16.8333V16H20V8C19.999 7.1451 19.67 6.32318 19.0808 5.70375C18.4916 5.08431 17.6871 4.71459 16.8333 4.67083ZM15.5 4.66667H4.5V1.33333H15.5V4.66667Z" fill="#001569"/>
<path d="M15.8333 7.66675H17.1666V9.00008H15.8333V7.66675Z" fill="#001569"/>
<path d="M4.16667 10.3333H2.5V11.6666H4.16667V19.9999H15.5V11.6666H17.1667V10.3333H4.16667ZM14.1667 18.6666H5.5V11.6666H14.1667V18.6666Z" fill="#001569"/>
</svg>
