<svg width="20" height="20" viewBox="0 0 20 20" fill="none" xmlns="http://www.w3.org/2000/svg">
<path d="M16.3033 18.75H3.44922C3.25983 18.75 3.07819 18.8158 2.94427 18.9331C2.81034 19.0503 2.73511 19.2092 2.73511 19.375C2.73511 19.5408 2.81034 19.6997 2.94427 19.8169C3.07819 19.9342 3.25983 20 3.44922 20H16.3033C16.4927 20 16.6743 19.9342 16.8083 19.8169C16.9422 19.6997 17.0174 19.5408 17.0174 19.375C17.0174 19.2092 16.9422 19.0503 16.8083 18.9331C16.6743 18.8158 16.4927 18.75 16.3033 18.75Z" fill="#001569"/>
<path d="M9.99761 9.96956e-07C7.34608 9.96956e-07 4.80315 0.921873 2.92823 2.56282C1.05332 4.20376 0 6.42936 0 8.75C0 9.03125 -4.78852e-08 9.30625 0.049988 9.58125C0.234009 11.2689 0.974243 12.8734 2.18071 14.1998C3.38717 15.5261 5.0079 16.5172 6.84587 17.0524C8.68385 17.5877 10.6599 17.6441 12.5338 17.2149C14.4078 16.7856 16.0989 15.8891 17.4015 14.6344C18.7042 13.3797 19.5624 11.8208 19.8717 10.1473C20.181 8.47368 19.9282 6.7575 19.1439 5.20734C18.3596 3.65718 17.0777 2.3398 15.454 1.41535C13.8303 0.490899 11.9347 -0.000808118 9.99761 9.96956e-07ZM9.99761 1.25C12.2556 1.25172 14.4216 2.03335 16.0247 3.425V4.05C13.2023 3.19989 10.1341 3.2109 7.31968 4.08125C7.09484 3.8895 6.81261 3.75732 6.50559 3.7H6.32706C6.24137 3.4375 6.16281 3.175 6.09854 2.90625C6.03427 2.6375 5.99857 2.4 5.96286 2.14375C7.20256 1.55823 8.58892 1.25113 9.99761 1.25ZM7.85527 4.91875C10.4487 4.15867 13.2594 4.1873 15.8319 5C15.484 6.58788 14.7242 8.08465 13.611 9.375C13.2997 9.2596 12.955 9.2319 12.6249 9.29574C12.2947 9.35958 11.9954 9.51179 11.7686 9.73125C11.5187 9.60625 11.2687 9.48125 11.0545 9.3375C9.61292 8.49569 8.40902 7.37791 7.53392 6.06875C7.67535 5.91526 7.77833 5.73745 7.83615 5.54686C7.89397 5.35628 7.90535 5.15718 7.86955 4.9625L7.85527 4.91875ZM4.99881 2.66875C4.99881 2.8 5.04165 2.9375 5.07022 3.06875C5.13449 3.34375 5.22018 3.6125 5.30588 3.88125C5.03242 4.02297 4.81233 4.23164 4.67274 4.48153C4.53316 4.73141 4.48018 5.01158 4.52035 5.2875C3.39312 5.93175 2.38626 6.72441 1.53535 7.6375C1.70609 6.6486 2.10109 5.69958 2.69712 4.84627C3.29314 3.99296 4.07815 3.2526 5.00595 2.66875H4.99881ZM4.99881 12.4875C4.72004 12.5694 4.47089 12.7142 4.27655 12.9074C4.0822 13.1005 3.94953 13.3351 3.89193 13.5875H3.43489C2.28165 12.3837 1.59191 10.892 1.46394 9.325L1.54249 9.20625C2.43672 7.99272 3.60576 6.95255 4.97738 6.15C5.18303 6.33797 5.44291 6.4738 5.72952 6.54311C6.01613 6.61242 6.31882 6.61265 6.60557 6.54375C7.56074 7.95646 8.8664 9.16327 10.4261 10.075C10.7189 10.2438 11.0188 10.4 11.3187 10.55C11.2947 10.789 11.3389 11.0296 11.4473 11.25C10.1404 12.1583 8.63298 12.82 7.01975 13.1938C6.83267 12.8878 6.52741 12.6501 6.15851 12.523C5.7896 12.3959 5.38109 12.3878 5.00595 12.5L4.99881 12.4875ZM9.99761 16.2375C8.54527 16.2378 7.11697 15.913 5.8486 15.2938L6.04856 15.2563C6.33272 15.1746 6.58666 15.0278 6.78387 14.831C6.98108 14.6342 7.11433 14.3947 7.16972 14.1375C8.9957 13.73 10.7004 12.984 12.1685 11.95C12.5173 12.1284 12.9291 12.1875 13.3246 12.1159C13.7202 12.0444 14.0715 11.8472 14.3109 11.5625C15.3184 11.7917 16.3548 11.9093 17.3958 11.9125H17.7743C17.0854 13.2091 15.9873 14.3063 14.6094 15.0748C13.2316 15.8433 11.6315 16.2511 9.99761 16.25V16.2375ZM14.6465 10.675C14.6458 10.413 14.5644 10.1561 14.4108 9.93125C15.5993 8.57258 16.4263 6.99892 16.8317 5.325C17.1888 5.47083 17.541 5.63333 17.8886 5.8125C18.674 7.43682 18.7802 9.25145 18.1885 10.9375C17.0029 11.0177 15.8103 10.9355 14.6536 10.6938L14.6465 10.675Z" fill="#001569"/>
</svg>
