<svg width="30" height="30" viewBox="0 0 30 30" fill="none" xmlns="http://www.w3.org/2000/svg">
<path d="M1.25 7.51562H6.75C7.07726 7.51601 7.39066 7.64652 7.62207 7.87793C7.85348 8.10934 7.98399 8.42274 7.98438 8.75V28.75L7.97852 28.8721C7.95016 29.1545 7.82453 29.4196 7.62207 29.6221C7.39066 29.8535 7.07726 29.984 6.75 29.9844H1.25C0.922741 29.984 0.609338 29.8535 0.37793 29.6221C0.146522 29.3907 0.0160054 29.0773 0.015625 28.75V8.75L0.0214844 8.62793C0.049835 8.34551 0.175468 8.08039 0.37793 7.87793C0.580392 7.67547 0.845506 7.54984 1.12793 7.52148L1.25 7.51562ZM1.98438 28.0156H6.01562V9.48438H1.98438V28.0156Z" fill="#FFAF37" stroke="#FFAF37" stroke-width="0.03125"/>
<path d="M12.25 14.0156H17.75C18.0773 14.016 18.3907 14.1465 18.6221 14.3779C18.8535 14.6093 18.984 14.9227 18.9844 15.25V28.75L18.9785 28.8721C18.9502 29.1545 18.8245 29.4196 18.6221 29.6221C18.3907 29.8535 18.0773 29.984 17.75 29.9844H12.25C11.9227 29.984 11.6093 29.8535 11.3779 29.6221C11.1465 29.3907 11.016 29.0773 11.0156 28.75V15.25L11.0215 15.1279C11.0498 14.8455 11.1755 14.5804 11.3779 14.3779C11.5804 14.1755 11.8455 14.0498 12.1279 14.0215L12.25 14.0156ZM12.9844 28.0156H17.0156V15.9844H12.9844V28.0156Z" fill="#FFAF37" stroke="#FFAF37" stroke-width="0.03125"/>
<path d="M23.25 0.015625H28.75C29.0773 0.0160054 29.3907 0.146522 29.6221 0.37793C29.8535 0.609338 29.984 0.922741 29.9844 1.25V28.75L29.9785 28.8721C29.9502 29.1545 29.8245 29.4196 29.6221 29.6221C29.3907 29.8535 29.0773 29.984 28.75 29.9844H23.25C22.9227 29.984 22.6093 29.8535 22.3779 29.6221C22.1465 29.3907 22.016 29.0773 22.0156 28.75V1.25L22.0215 1.12793C22.0498 0.845506 22.1755 0.580392 22.3779 0.37793C22.5804 0.175468 22.8455 0.049835 23.1279 0.0214844L23.25 0.015625ZM23.9844 28.0156H28.0156V1.98438H23.9844V28.0156Z" fill="#FFAF37" stroke="#FFAF37" stroke-width="0.03125"/>
</svg>
