<svg width="61" height="61" viewBox="0 0 61 61" fill="none" xmlns="http://www.w3.org/2000/svg">
<path d="M29.8564 60.2449C-0.848942 53.0215 0.254967 6.34548 0.254967 6.34548C5.95448 6.40548 30.2524 0.25 30.2524 0.25V0.357991C30.2524 0.357991 54.5503 6.50147 60.2499 6.45347C60.2499 6.45347 60.5498 53.0215 29.8564 60.2449Z" fill="#FFAF37"/>
<path d="M42.9186 3.37805C42.9186 3.37805 50.6507 39.8705 30.2524 59.0689C30.2524 59.0689 49.4508 57.869 56.6502 29.0715C63.8496 0.273916 56.6502 6.27341 56.6502 6.27341L42.9186 3.37805Z" fill="#FFAF37"/>
<path d="M19.0262 26.468L30.0233 43.2786L47.6666 14.1631L41.5435 17.1532L30.0605 36.1008L22.9043 25.1601L19.0262 26.468Z" fill="#001569"/>
<path d="M30.2524 0.25C30.2524 0.25 5.94964 6.40308 0.254923 6.35148C0.254923 6.35148 -0.845383 53.0191 29.8528 60.2437" stroke="#FFAF37" stroke-width="0.5" stroke-miterlimit="10" stroke-linecap="round" stroke-linejoin="round"/>
<path d="M29.8528 60.2448C60.5498 53.0178 60.2499 6.45341 60.2499 6.45341C54.5551 6.50621 30.2524 0.351929 30.2524 0.351929" stroke="#FFAF37" stroke-width="0.5" stroke-miterlimit="10" stroke-linecap="round" stroke-linejoin="round"/>
<path d="M19.0262 26.468L30.0233 43.2786L47.6666 14.1631L41.5435 17.1532L30.0605 36.1008L22.9043 25.1601L19.0262 26.468Z" stroke="#FFAF37" stroke-width="0.5" stroke-miterlimit="10" stroke-linecap="round" stroke-linejoin="round"/>
</svg>
