<svg width="20" height="24" viewBox="0 0 20 24" fill="none" xmlns="http://www.w3.org/2000/svg">
<path d="M10 0L0 3.33333V13.3333C0 18.8568 4.47656 23.3333 10 23.3333C15.5234 23.3333 20 18.8568 20 13.3333V3.33333L10 0ZM18.125 13.3333C18.125 17.8203 14.487 21.4583 10 21.4583C5.51302 21.4583 1.875 17.8203 1.875 13.3333V4.73958L10 1.875L18.125 4.73958V13.3333Z" fill="#001569"/>
<path d="M6.52085 10.7056C6.43396 10.6184 6.33068 10.5491 6.21694 10.5018C6.10321 10.4546 5.98126 10.4302 5.85809 10.4302C5.73493 10.4302 5.61297 10.4546 5.49924 10.5018C5.3855 10.5491 5.28222 10.6184 5.19533 10.7056C5.10804 10.7925 5.03878 10.8958 4.99151 11.0096C4.94425 11.1233 4.91992 11.2452 4.91992 11.3684C4.91992 11.4916 4.94425 11.6135 4.99151 11.7273C5.03878 11.841 5.10804 11.9443 5.19533 12.0312L8.56512 15.401L8.61981 15.4556C8.702 15.538 8.79963 15.6033 8.90709 15.6479C9.01456 15.6925 9.12977 15.7154 9.24611 15.7154C9.36246 15.7154 9.47766 15.6925 9.58513 15.6479C9.6926 15.6033 9.79022 15.538 9.87241 15.4556L15.6927 9.63534C15.7751 9.55314 15.8404 9.45552 15.885 9.34805C15.9296 9.24058 15.9525 9.12538 15.9525 9.00903C15.9525 8.89269 15.9296 8.77748 15.885 8.67002C15.8404 8.56255 15.7751 8.46492 15.6927 8.38273L15.6198 8.30982C15.5376 8.22747 15.44 8.16214 15.3325 8.11757C15.2251 8.07299 15.1099 8.05005 14.9935 8.05005C14.8772 8.05005 14.762 8.07299 14.6545 8.11757C14.547 8.16214 14.4494 8.22747 14.3672 8.30982L9.24481 13.4296L6.52085 10.7056Z" fill="#001569"/>
</svg>
