<svg width="20" height="20" viewBox="0 0 20 20" fill="none" xmlns="http://www.w3.org/2000/svg">
<path d="M11.72 7.21991C11.7887 7.14622 11.8715 7.08712 11.9635 7.04613C12.0555 7.00514 12.1548 6.98309 12.2555 6.98132C12.3562 6.97954 12.4562 6.99807 12.5496 7.03579C12.643 7.07351 12.7279 7.12965 12.7991 7.20087C12.8703 7.27209 12.9264 7.35692 12.9642 7.45031C13.0019 7.5437 13.0204 7.64373 13.0186 7.74443C13.0168 7.84513 12.9948 7.94445 12.9538 8.03645C12.9128 8.12845 12.8537 8.21125 12.78 8.27991L8.28003 12.7799C8.21137 12.8536 8.12857 12.9127 8.03657 12.9537C7.94457 12.9947 7.84526 13.0167 7.74455 13.0185C7.64385 13.0203 7.54382 13.0018 7.45043 12.964C7.35705 12.9263 7.27221 12.8702 7.20099 12.7989C7.12978 12.7277 7.07363 12.6429 7.03591 12.5495C6.99819 12.4561 6.97966 12.3561 6.98144 12.2554C6.98322 12.1547 7.00526 12.0554 7.04625 11.9634C7.08724 11.8714 7.14635 11.7886 7.22003 11.7199L11.72 7.21991Z" fill="#001569"/>
<path d="M15.75 0C16.8772 0 17.9582 0.447767 18.7552 1.2448C19.5522 2.04183 20 3.12283 20 4.25V5.25C20 13.396 13.396 20 5.25 20H4.25C3.12283 20 2.04183 19.5522 1.2448 18.7552C0.447767 17.9582 0 16.8772 0 15.75V14.75C0 6.604 6.604 0 14.75 0H15.75ZM18.5 4.25C18.5 3.52065 18.2103 2.82118 17.6945 2.30546C17.1788 1.78973 16.4793 1.5 15.75 1.5H14.75C14.347 1.5 13.948 1.518 13.554 1.553L18.447 6.446C18.482 6.052 18.5 5.653 18.5 5.25V4.25ZM18.153 8.274L11.726 1.847C9.30685 2.41596 7.09608 3.65281 5.34546 5.4167C3.59483 7.18059 2.37469 9.40063 1.824 11.824L8.176 18.176C10.5994 17.6254 12.8195 16.4053 14.5834 14.6547C16.3473 12.904 17.5841 10.6932 18.153 8.274ZM1.543 13.665C1.515 14.023 1.5 14.385 1.5 14.75V15.75C1.5 16.4793 1.78973 17.1788 2.30546 17.6945C2.82118 18.2103 3.52065 18.5 4.25 18.5H5.25C5.615 18.5 5.977 18.485 6.335 18.456L1.544 13.665H1.543Z" fill="#001569"/>
</svg>
