<svg width="24" height="24" viewBox="0 0 24 24" fill="none" xmlns="http://www.w3.org/2000/svg">
<path d="M5.41751 22.125L5.86887 22.35C7.7498 23.475 9.85625 24 11.9628 24C18.5833 24 24 18.6 24 12C24 8.85004 22.721 5.77502 20.4641 3.52498C18.2071 1.27495 15.1977 0 11.9628 0C5.34234 0 -0.0745051 5.39999 0.000775285 12.075C0.000775285 14.325 0.677867 16.5001 1.80632 18.375L2.10722 18.825L0.9036 23.2501L5.41751 22.125Z" fill="#00E676"/>
<path d="M19.2761 4.61105C17.3584 2.63695 14.7074 1.56523 12 1.56523C6.2468 1.56523 1.62163 6.24677 1.67798 11.9436C1.67798 13.7485 2.18562 15.4971 3.03174 17.0764L1.56519 22.4348L7.0364 21.0247C8.55931 21.8708 10.2514 22.2656 11.9436 22.2656C17.6404 22.2656 22.2656 17.584 22.2656 11.8873C22.2656 9.12343 21.1939 6.5288 19.2762 4.61105H19.2761ZM12 20.5171C10.4771 20.5171 8.95415 20.1224 7.65683 19.3327L7.31843 19.1635L4.04701 20.0095L4.89305 16.7945L4.66745 16.456C2.18562 12.4514 3.37014 7.14924 7.43123 4.66741C11.4923 2.18567 16.7379 3.37018 19.2198 7.43128C21.7015 11.4924 20.517 16.738 16.456 19.2198C15.1586 20.0658 13.5793 20.517 12 20.517V20.5171ZM16.9635 14.2563L16.3431 13.9743C16.3431 13.9743 15.4407 13.5794 14.8766 13.2974C14.8202 13.2974 14.7638 13.241 14.7074 13.241C14.5382 13.241 14.4254 13.2974 14.3126 13.3538C14.3126 13.3538 14.2562 13.4102 13.4665 14.3127C13.4101 14.4255 13.2973 14.4819 13.1845 14.4819H13.128C13.0717 14.4819 12.9589 14.4255 12.9024 14.3691L12.6204 14.2563C12 13.9743 11.436 13.6358 10.9847 13.1846C10.8719 13.0718 10.7027 12.959 10.5899 12.8462C10.195 12.4514 9.80018 12.0001 9.51822 11.4925L9.46178 11.3797C9.40542 11.3232 9.40542 11.2669 9.34898 11.1541C9.34898 11.0413 9.34898 10.9285 9.40542 10.872C9.40542 10.872 9.63102 10.59 9.80018 10.4208C9.91306 10.3079 9.96942 10.1388 10.0822 10.026C10.195 9.85675 10.2515 9.63115 10.195 9.46191C10.1387 9.17987 9.46178 7.65696 9.29262 7.31856C9.17974 7.14932 9.06703 7.09296 8.89779 7.03652H8.27735C8.16447 7.03652 8.05175 7.09296 7.93887 7.09296L7.88243 7.14932C7.76963 7.20576 7.65683 7.31856 7.54403 7.37492C7.43123 7.4878 7.37479 7.60052 7.26199 7.7134C6.86716 8.22104 6.64156 8.84147 6.64156 9.46191C6.64156 9.91311 6.75436 10.3644 6.9236 10.7592L6.98004 10.9285C7.48767 12.0001 8.16447 12.959 9.06703 13.805L9.29262 14.0306C9.46178 14.1999 9.63102 14.3127 9.74382 14.4818C10.9283 15.4972 12.282 16.2304 13.8049 16.6253C13.9742 16.6816 14.1998 16.6816 14.369 16.7381H14.933C15.215 16.7381 15.5534 16.6253 15.7791 16.5125C15.9483 16.3997 16.0611 16.3997 16.1739 16.2869L16.2867 16.174C16.3995 16.0612 16.5123 16.0048 16.6251 15.892C16.7379 15.7792 16.8507 15.6664 16.9072 15.5536C17.02 15.328 17.0763 15.0459 17.1328 14.764V14.3691C17.1328 14.3691 17.0763 14.3127 16.9635 14.2563Z" fill="white"/>
</svg>
