<svg width="34" height="34" viewBox="0 0 34 34" fill="none" xmlns="http://www.w3.org/2000/svg">
<path d="M14.8326 8.36147L9.75812 2.50401C9.17312 1.82901 8.10063 1.83201 7.42113 2.51301L3.24815 6.69348C2.00616 7.93698 1.65066 9.78347 2.36916 11.264C6.66156 20.1514 13.8292 27.329 22.7105 31.6338C24.1895 32.3523 26.0345 31.9968 27.2765 30.7534L31.4885 26.5339C32.171 25.8514 32.1725 24.7729 31.4915 24.1879L25.6115 19.1404C24.9965 18.6124 24.041 18.6814 23.4245 19.2994L21.3786 21.3484C21.2738 21.4582 21.1359 21.5305 20.9861 21.5544C20.8362 21.5782 20.6827 21.5522 20.5491 21.4804C17.2047 19.5546 14.4306 16.7768 12.5091 13.4299C12.4371 13.2961 12.4111 13.1423 12.4349 12.9922C12.4588 12.8421 12.5312 12.7039 12.6411 12.599L14.6811 10.5575C15.2991 9.93647 15.3666 8.97647 14.8326 8.35997V8.36147Z" stroke="#FFAF37" stroke-width="4" stroke-linecap="round" stroke-linejoin="round"/>
</svg>
